 
<svg version="1.1" xmlns="http://www.w3.org/2000/svg" width="1056" height="1024" viewBox="0 0 1056 1024">
<g id="icon-send">
</g>
<path d="M706.765 85.375h-357.12c-155.308 0-247.895 92.587-247.895 247.892v357.12c0 155.309 92.587 247.894 247.895 247.894h357.12c155.306 0 247.891-92.586 247.891-247.894v-357.12c0-155.306-92.586-247.892-247.891-247.892z"></path>
<path d="M704.426 359.84l-150.96-81.36c-15.84-8.64-35.040-8.64-51.12 0l-150.96 81.36c-11.040 6-17.76 17.76-17.76 30.72s6.72 24.72 17.76 30.72l150.96 81.36c7.92 4.32 16.8 6.48 25.44 6.48s17.52-2.16 25.44-6.48l150.96-81.36c11.040-6 17.76-17.76 17.76-30.72 0.48-12.96-6.48-24.72-17.52-30.72z"></path>
<path d="M477.571 530.922l-140.4-70.32c-10.8-5.52-23.281-4.8-33.601 1.44s-16.32 17.28-16.32 29.28v132.72c0 23.040 12.72 43.68 33.361 54l140.4 70.080c4.8 2.4 10.080 3.6 15.36 3.6 6.24 0 12.48-1.68 18-5.28 10.32-6.24 16.32-17.28 16.32-29.28v-132.72c0.24-22.56-12.48-43.2-33.12-53.52z"></path>
<path d="M768.742 491.53v110.16c-0.24-0.24-0.48-0.72-0.72-0.96 0-0.24-0.24-0.48-0.48-0.72-0.96-1.44-2.16-2.88-3.36-4.080-0.24-0.24-0.48-0.72-0.72-0.96-19.44-21.6-48-35.040-79.44-35.040-30.24 0-57.84 12.48-77.52 32.64-18.96 19.44-30.48 46.080-30.48 75.36 0 20.16 5.76 39.36 15.6 55.68 4.080 6.96 9.12 13.2 14.64 18.96l-11.28 5.76c-4.8 2.4-10.080 3.6-15.36 3.6-6.24 0-12.48-1.68-18.24-5.28-10.080-6.24-16.32-17.28-16.32-29.28v-132.48c0-23.040 12.72-43.68 33.36-54l140.4-70.080c10.8-5.52 23.28-5.040 33.6 1.44 10.080 6.24 16.32 17.28 16.32 29.28z"></path>
<path d="M767.52 600.099c-19.68-24.24-49.68-39.6-83.52-39.6-25.44 0-48.96 8.88-67.44 23.76-24.96 19.68-40.56 50.16-40.56 84.24 0 20.16 5.76 39.36 15.6 55.68 6.48 10.8 14.64 20.16 24.24 27.84h0.24c18.48 15.36 42.24 24.48 67.92 24.48 27.36 0 52.080-10.080 71.040-26.88 8.4-7.2 15.6-15.84 21.36-25.44 9.84-16.32 15.6-35.52 15.6-55.68 0-25.92-9.12-49.92-24.48-68.4zM738.24 655.059l-57.6 53.28c-3.36 3.12-7.92 4.8-12.24 4.8-4.56 0-9.12-1.68-12.72-5.28l-26.64-26.64c-6.96-6.96-6.96-18.48 0-25.44s18.48-6.96 25.44 0l14.4 14.4 44.88-41.52c7.2-6.72 18.72-6.24 25.44 0.96 6.96 7.44 6.48 18.72-0.96 25.44z"></path> 
</defs>
</svg>
