<!-- Generated by IcoMoon.io -->
<svg version="1.1" xmlns="http://www.w3.org/2000/svg" width="1024" height="1024" viewBox="0 0 1024 1024">
<g id="icomoon-ignore">
</g>
<path d="M938.667 768.213c0 23.467-19.029 42.453-42.453 42.453h-341.76c-11.26 0-22.059-4.471-30.020-12.433s-12.433-18.761-12.433-30.020c0-11.26 4.471-22.059 12.433-30.020s18.761-12.433 30.020-12.433h341.76c23.467 0 42.453 18.987 42.453 42.453zM938.667 512c0 23.467-19.029 42.453-42.453 42.453h-768.427c-11.259 0-22.057-4.471-30.019-12.433s-12.434-18.761-12.434-30.020c0-11.26 4.473-22.059 12.434-30.020s18.76-12.433 30.019-12.433h768.427c23.467 0 42.453 19.029 42.453 42.453zM896.213 298.24c11.26 0 22.059-4.473 30.020-12.434s12.433-18.76 12.433-30.019c0-11.259-4.471-22.057-12.433-30.019s-18.761-12.434-30.020-12.434h-512.427c-5.575 0-11.095 1.098-16.246 3.232s-9.831 5.26-13.773 9.203c-3.942 3.942-7.069 8.622-9.203 13.773s-3.232 10.671-3.232 16.246c0 5.575 1.098 11.095 3.232 16.246s5.26 9.831 9.203 13.773c3.942 3.942 8.622 7.069 13.773 9.203s10.671 3.232 16.246 3.232h512.427z"></path>
</svg>
